<?xml version="1.0" encoding="utf-8"?>
<!-- Generator: Adobe Illustrator 24.1.2, SVG Export Plug-In . SVG Version: 6.00 Build 0)  -->
<svg version="1.1" id="Layer_1" xmlns="http://www.w3.org/2000/svg" xmlns:xlink="http://www.w3.org/1999/xlink" x="0px" y="0px"
	 viewBox="0 0 15 20" style="enable-background:new 0 0 15 20;" xml:space="preserve">
<style type="text/css">
	.st0{fill:#0B6AF9;}
</style>
<g>
	<path class="st0" d="M13.7,19.2L13.7,19.2c-0.7,0.5-1.6,0.3-2.1-0.4L1.2,3.3C0.7,2.6,0.9,1.7,1.6,1.2l0,0c0.7-0.5,1.6-0.3,2.1,0.4
		l10.5,15.5C14.6,17.8,14.4,18.7,13.7,19.2z"/>
</g>
<g>
	<path class="st0" d="M2.1,19.5L2.1,19.5c-0.8-0.5-1-1.4-0.6-2l8.9-14.7c0.4-0.7,1.3-0.9,2-0.5l0.1,0.1c0.7,0.4,0.9,1.3,0.5,2
		L4.1,19C3.6,19.7,2.7,19.9,2.1,19.5z"/>
</g>
</svg>
